<?xml version="1.0" standalone="no"?><!DOCTYPE svg PUBLIC "-//W3C//DTD SVG 1.1//EN" "http://www.w3.org/Graphics/SVG/1.1/DTD/svg11.dtd"><svg class="icon" height="512" viewBox="0 0 1024 1024" version="1.1" xmlns="http://www.w3.org/2000/svg"><path d="M213.959 358.178c0 0 0 0 0 0 0 164.659 133.475 298.124 298.124 298.124 164.659 0 298.124-133.475 298.124-298.124 0 0 0 0 0 0 0-164.659-133.475-298.124-298.124-298.124-164.659 0-298.124 133.475-298.124 298.124zM761.478 595.164c-62.783 66.038-151.163 107.393-249.469 107.393s-186.601-41.317-249.469-107.393c-117.406 79.967-194.639 214.684-194.639 367.299h887.99c0.125-152.657-77.036-287.353-194.453-367.299z" /></svg>